<svg width="64" height="65" viewBox="0 0 64 65" fill="none" xmlns="http://www.w3.org/2000/svg">
<path d="M0 32.2471C0 40.734 3.37142 48.8733 9.37258 54.8745C15.3737 60.8757 23.5131 64.2471 32 64.2471C40.4869 64.2471 48.6263 60.8757 54.6274 54.8745C60.6286 48.8733 64 40.734 64 32.2471C64 23.7601 60.6286 15.6208 54.6274 9.61965C48.6263 3.61849 40.4869 0.24707 32 0.24707C23.5131 0.24707 15.3737 3.61849 9.37258 9.61965C3.37142 15.6208 0 23.7601 0 32.2471ZM30.125 47.3721C28.95 48.5471 27.05 48.5471 25.8875 47.3721C24.725 46.1971 24.7125 44.2971 25.8875 43.1346L36.7625 32.2596L25.8875 21.3846C24.7125 20.2096 24.7125 18.3096 25.8875 17.1471C27.0625 15.9846 28.9625 15.9721 30.125 17.1471L43.125 30.1221C44.3 31.2971 44.3 33.1971 43.125 34.3596L30.125 47.3721Z" fill="#C8E8F7"/>
</svg>
