<svg width="21" height="25" viewBox="0 0 21 25" fill="none" xmlns="http://www.w3.org/2000/svg">
<path d="M0.440624 11.4347C-0.145313 12.0206 -0.145313 12.9722 0.440624 13.5581L7.94062 21.0581C8.52656 21.644 9.47812 21.644 10.0641 21.0581C10.65 20.4722 10.65 19.5206 10.0641 18.9347L5.11875 13.994L19.5 13.994C20.3297 13.994 21 13.3237 21 12.494C21 11.6644 20.3297 10.994 19.5 10.994L5.12344 10.994L10.0594 6.05342C10.6453 5.46748 10.6453 4.51592 10.0594 3.92998C9.47344 3.34404 8.52187 3.34404 7.93594 3.92998L0.435936 11.43L0.440624 11.4347Z" fill="#151314"/>
</svg>
